<svg id="Capa_1" enable-background="new 0 0 512 512" height="512" viewBox="0 0 512 512" width="512" xmlns="http://www.w3.org/2000/svg" xmlns:xlink="http://www.w3.org/1999/xlink"><linearGradient id="SVGID_1_" gradientUnits="userSpaceOnUse" x1="256" x2="256" y1="512" y2="0"><stop offset="0" stop-color="#ffc2cc"/><stop offset="1" stop-color="#fff2f4"/></linearGradient><linearGradient id="SVGID_2_" gradientTransform="matrix(.707 .707 -.737 .737 270.44 -242.454)" gradientUnits="userSpaceOnUse" x1="342.25" x2="342.25" y1="526.604" y2="169.604"><stop offset="0" stop-color="#ffa68d"/><stop offset="1" stop-color="#fd3a84"/></linearGradient><g><g><circle cx="256" cy="256" fill="url(#SVGID_1_)" r="256"/></g><g><g><path d="m198.637 361.446c-13.814 13.814-35.836 14.259-49.089 1.006s-12.808-35.275 1.006-49.089l68.195-68.195c-22.99-5.634-48.694.611-67.189 19.106l-25.048 25.048c-27.667 27.666-28.568 71.622-2.012 98.179 26.556 26.556 70.512 25.654 98.178-2.012l25.048-25.048c18.495-18.495 24.74-44.199 19.106-67.189zm-11.518-36.565c6.639 6.639 17.628 6.414 24.544-.503l112.714-112.714c6.917-6.917 7.142-17.906.503-24.545s-17.628-6.414-24.544.503l-112.714 112.714c-6.917 6.917-7.142 17.906-.503 24.545zm200.381-200.381c-26.556-26.556-70.511-25.655-98.178 2.012l-25.048 25.048c-18.495 18.495-24.739 44.198-19.105 67.189l68.195-68.195c13.814-13.814 35.836-14.259 49.089-1.006s12.808 35.275-1.006 49.089l-68.194 68.195c22.99 5.634 48.693-.61 67.188-19.105l25.048-25.048c27.666-27.668 28.567-71.623 2.011-98.179z" fill="url(#SVGID_2_)"/></g></g></g></svg>